<?xml version="1.0" encoding="UTF-8"?>
<svg width="677px" height="432px" viewBox="0 0 677 432" version="1.1" xmlns="http://www.w3.org/2000/svg" xmlns:xlink="http://www.w3.org/1999/xlink">
    <title>登陆svg4</title>
    <defs>
        <linearGradient x1="50%" y1="0.478635134%" x2="50%" y2="100%" id="linearGradient-1">
            <stop stop-color="#FFFFFF" stop-opacity="0.8" offset="0%"></stop>
            <stop stop-color="#FFFFFF" stop-opacity="0.5" offset="100%"></stop>
        </linearGradient>
        <linearGradient x1="50%" y1="0%" x2="50%" y2="100%" id="linearGradient-2">
            <stop stop-color="#FFFFFF" stop-opacity="0.3" offset="0%"></stop>
            <stop stop-color="#FFFFFF" stop-opacity="0.1" offset="100%"></stop>
        </linearGradient>
        <linearGradient x1="4.77216269%" y1="47.996866%" x2="53.3158886%" y2="52.4515306%" id="linearGradient-3">
            <stop stop-color="#FFFFFF" stop-opacity="0.6" offset="0%"></stop>
            <stop stop-color="#FFFFFF" stop-opacity="0" offset="100%"></stop>
        </linearGradient>
        <linearGradient x1="50%" y1="0%" x2="50%" y2="100%" id="linearGradient-4">
            <stop stop-color="#467AFF" offset="0%"></stop>
            <stop stop-color="#84A6FF" offset="100%"></stop>
        </linearGradient>
        <linearGradient x1="50%" y1="0%" x2="50%" y2="97.0594713%" id="linearGradient-5">
            <stop stop-color="#FFFFFF" stop-opacity="0.3" offset="0%"></stop>
            <stop stop-color="#FFFFFF" stop-opacity="0.05" offset="100%"></stop>
        </linearGradient>
        <linearGradient x1="4.77216269%" y1="38.2751003%" x2="31.1313584%" y2="61.718329%" id="linearGradient-6">
            <stop stop-color="#FFFFFF" stop-opacity="0.3" offset="0%"></stop>
            <stop stop-color="#6C95FF" stop-opacity="0" offset="100%"></stop>
        </linearGradient>
        <linearGradient x1="50%" y1="0%" x2="50%" y2="100%" id="linearGradient-7">
            <stop stop-color="#FFFFFF" stop-opacity="0.4" offset="0%"></stop>
            <stop stop-color="#FFFFFF" stop-opacity="0.05" offset="100%"></stop>
        </linearGradient>
        <linearGradient x1="10.6015284%" y1="9.14523821%" x2="40.9790936%" y2="50%" id="linearGradient-8">
            <stop stop-color="#FFFFFF" stop-opacity="0.5" offset="0%"></stop>
            <stop stop-color="#FFFFFF" stop-opacity="0" offset="100%"></stop>
        </linearGradient>
        <linearGradient x1="50%" y1="0%" x2="50%" y2="100%" id="linearGradient-9">
            <stop stop-color="#FFFFFF" offset="0%"></stop>
            <stop stop-color="#FFFFFF" stop-opacity="0.2" offset="100%"></stop>
        </linearGradient>
        <linearGradient x1="50%" y1="0%" x2="50%" y2="100%" id="linearGradient-10">
            <stop stop-color="#467AFF" offset="0%"></stop>
            <stop stop-color="#467AFF" stop-opacity="0.5" offset="100%"></stop>
        </linearGradient>
        <linearGradient x1="50%" y1="0%" x2="50%" y2="100%" id="linearGradient-11">
            <stop stop-color="#FFFFFF" offset="0%"></stop>
            <stop stop-color="#FFFFFF" stop-opacity="0.8" offset="100%"></stop>
        </linearGradient>
        <linearGradient x1="50%" y1="0%" x2="50%" y2="100%" id="linearGradient-12">
            <stop stop-color="#FFFFFF" stop-opacity="0.4" offset="0%"></stop>
            <stop stop-color="#FFFFFF" stop-opacity="0.1" offset="100%"></stop>
        </linearGradient>
        <linearGradient x1="50%" y1="0%" x2="50%" y2="100%" id="linearGradient-13">
            <stop stop-color="#467AFF" offset="0%"></stop>
            <stop stop-color="#467AFF" stop-opacity="0.5" offset="100%"></stop>
        </linearGradient>
        <linearGradient x1="56.8076681%" y1="0%" x2="56.8076681%" y2="100%" id="linearGradient-14">
            <stop stop-color="#FCFDFF" stop-opacity="0.9" offset="0%"></stop>
            <stop stop-color="#5483FF" stop-opacity="0" offset="100%"></stop>
            <stop stop-color="#FFFFFF" stop-opacity="0.2" offset="100%"></stop>
        </linearGradient>
        <linearGradient x1="33.3264088%" y1="3.57687544%" x2="72.8906551%" y2="92.201919%" id="linearGradient-15">
            <stop stop-color="#FFFFFF" stop-opacity="0.8" offset="0%"></stop>
            <stop stop-color="#E0E8FF" stop-opacity="0" offset="100%"></stop>
        </linearGradient>
        <linearGradient x1="50%" y1="0%" x2="50%" y2="100%" id="linearGradient-16">
            <stop stop-color="#FFFFFF" stop-opacity="0.4" offset="0%"></stop>
            <stop stop-color="#5B89FF" stop-opacity="0" offset="100%"></stop>
        </linearGradient>
        <linearGradient x1="50%" y1="0%" x2="50%" y2="100%" id="linearGradient-17">
            <stop stop-color="#FFFFFF" stop-opacity="0.4" offset="0%"></stop>
            <stop stop-color="#5B89FF" stop-opacity="0" offset="100%"></stop>
        </linearGradient>
        <linearGradient x1="50%" y1="0%" x2="50%" y2="100%" id="linearGradient-18">
            <stop stop-color="#FFFFFF" stop-opacity="0.4" offset="0%"></stop>
            <stop stop-color="#5B89FF" stop-opacity="0" offset="100%"></stop>
        </linearGradient>
        <linearGradient x1="50%" y1="0%" x2="50%" y2="100%" id="linearGradient-19">
            <stop stop-color="#FFFFFF" stop-opacity="0.4" offset="0%"></stop>
            <stop stop-color="#5B89FF" stop-opacity="0" offset="100%"></stop>
        </linearGradient>
        <linearGradient x1="50%" y1="0%" x2="50%" y2="100%" id="linearGradient-20">
            <stop stop-color="#FFFFFF" stop-opacity="0.4" offset="0%"></stop>
            <stop stop-color="#5B89FF" stop-opacity="0" offset="100%"></stop>
        </linearGradient>
        <linearGradient x1="50%" y1="0.206495165%" x2="50%" y2="100%" id="linearGradient-21">
            <stop stop-color="#FFFFFF" stop-opacity="0.5" offset="0%"></stop>
            <stop stop-color="#5B89FF" stop-opacity="0" offset="100%"></stop>
        </linearGradient>
        <linearGradient x1="100%" y1="45.3977882%" x2="0%" y2="54.6022118%" id="linearGradient-22">
            <stop stop-color="#FFFFFF" stop-opacity="0.8" offset="0%"></stop>
            <stop stop-color="#FFFFFF" stop-opacity="0.1" offset="100%"></stop>
        </linearGradient>
        <linearGradient x1="56.8076681%" y1="0%" x2="56.8076681%" y2="100%" id="linearGradient-23">
            <stop stop-color="#FCFDFF" offset="0%"></stop>
            <stop stop-color="#B0C6FF" stop-opacity="0.3" offset="100%"></stop>
            <stop stop-color="#FFFFFF" stop-opacity="0.2" offset="100%"></stop>
        </linearGradient>
        <linearGradient x1="0%" y1="41.1649363%" x2="80.8337145%" y2="99.6212617%" id="linearGradient-24">
            <stop stop-color="#FFFFFF" stop-opacity="0.5" offset="0%"></stop>
            <stop stop-color="#6993FF" stop-opacity="0.2" offset="100%"></stop>
        </linearGradient>
        <linearGradient x1="50%" y1="0%" x2="50%" y2="97.0594713%" id="linearGradient-25">
            <stop stop-color="#FFFFFF" stop-opacity="0.3" offset="0%"></stop>
            <stop stop-color="#3A71FF" stop-opacity="0.1" offset="100%"></stop>
        </linearGradient>
        <linearGradient x1="50%" y1="0%" x2="50%" y2="97.0594713%" id="linearGradient-26">
            <stop stop-color="#FFFFFF" stop-opacity="0.3" offset="0%"></stop>
            <stop stop-color="#FFFFFF" stop-opacity="0.05" offset="100%"></stop>
        </linearGradient>
        <linearGradient x1="50%" y1="0%" x2="50%" y2="97.0594713%" id="linearGradient-27">
            <stop stop-color="#FFFFFF" stop-opacity="0.3" offset="0%"></stop>
            <stop stop-color="#FFFFFF" stop-opacity="0.05" offset="100%"></stop>
        </linearGradient>
        <linearGradient x1="50%" y1="0%" x2="50%" y2="97.0594713%" id="linearGradient-28">
            <stop stop-color="#FFFFFF" stop-opacity="0.3" offset="0%"></stop>
            <stop stop-color="#FFFFFF" stop-opacity="0.05" offset="100%"></stop>
        </linearGradient>
        <linearGradient x1="50%" y1="0%" x2="50%" y2="100%" id="linearGradient-29">
            <stop stop-color="#FFFFFF" stop-opacity="0.4" offset="0%"></stop>
            <stop stop-color="#FFFFFF" stop-opacity="0.05" offset="100%"></stop>
        </linearGradient>
        <linearGradient x1="50%" y1="0%" x2="50%" y2="100%" id="linearGradient-30">
            <stop stop-color="#FFFFFF" offset="0%"></stop>
            <stop stop-color="#FFFFFF" stop-opacity="0.2" offset="100%"></stop>
        </linearGradient>
        <linearGradient x1="50%" y1="0%" x2="50%" y2="100%" id="linearGradient-31">
            <stop stop-color="#FFFFFF" stop-opacity="0.4" offset="0%"></stop>
            <stop stop-color="#FFFFFF" stop-opacity="0.05" offset="100%"></stop>
        </linearGradient>
        <linearGradient x1="50%" y1="0%" x2="50%" y2="100%" id="linearGradient-32">
            <stop stop-color="#FFFFFF" stop-opacity="0.4" offset="0%"></stop>
            <stop stop-color="#FFFFFF" stop-opacity="0.05" offset="100%"></stop>
        </linearGradient>
        <linearGradient x1="50%" y1="0%" x2="50%" y2="100%" id="linearGradient-33">
            <stop stop-color="#FFFFFF" stop-opacity="0.4" offset="0%"></stop>
            <stop stop-color="#FFFFFF" stop-opacity="0.05" offset="100%"></stop>
        </linearGradient>
        <linearGradient x1="33.3264088%" y1="47.3195829%" x2="50%" y2="52.8869417%" id="linearGradient-34">
            <stop stop-color="#FFFFFF" offset="0%"></stop>
            <stop stop-color="#FFFFFF" stop-opacity="0.45" offset="100%"></stop>
        </linearGradient>
        <linearGradient x1="48.8229016%" y1="3.57687544%" x2="50%" y2="100%" id="linearGradient-35">
            <stop stop-color="#FFFFFF" offset="0%"></stop>
            <stop stop-color="#FFFFFF" stop-opacity="0.45" offset="100%"></stop>
        </linearGradient>
        <linearGradient x1="33.3264088%" y1="45.2281867%" x2="50%" y2="55.1394788%" id="linearGradient-36">
            <stop stop-color="#FFFFFF" offset="0%"></stop>
            <stop stop-color="#FFFFFF" stop-opacity="0.45" offset="100%"></stop>
        </linearGradient>
        <linearGradient x1="33.3264088%" y1="47.3195719%" x2="50%" y2="52.8869536%" id="linearGradient-37">
            <stop stop-color="#FFFFFF" offset="0%"></stop>
            <stop stop-color="#FFFFFF" stop-opacity="0.45" offset="100%"></stop>
        </linearGradient>
        <linearGradient x1="45.1766033%" y1="3.57687544%" x2="50%" y2="100%" id="linearGradient-38">
            <stop stop-color="#FFFFFF" offset="0%"></stop>
            <stop stop-color="#FFFFFF" stop-opacity="0.45" offset="100%"></stop>
        </linearGradient>
        <linearGradient x1="36.2038591%" y1="3.57687544%" x2="50%" y2="100%" id="linearGradient-39">
            <stop stop-color="#FFFFFF" offset="0%"></stop>
            <stop stop-color="#FFFFFF" stop-opacity="0.45" offset="100%"></stop>
        </linearGradient>
        <linearGradient x1="33.3264088%" y1="46.927027%" x2="49.5656164%" y2="53.1434601%" id="linearGradient-40">
            <stop stop-color="#D3DFFF" stop-opacity="0.7" offset="0%"></stop>
            <stop stop-color="#FCFDFF" stop-opacity="0.5" offset="100%"></stop>
        </linearGradient>
        <linearGradient x1="48.6043508%" y1="4.68271696%" x2="49.9415353%" y2="96.0070964%" id="linearGradient-41">
            <stop stop-color="#C3D3FF" stop-opacity="0.7" offset="0%"></stop>
            <stop stop-color="#D7E2FF" offset="100%"></stop>
        </linearGradient>
        <linearGradient x1="48.604378%" y1="4.68271696%" x2="49.9635662%" y2="97.5116714%" id="linearGradient-42">
            <stop stop-color="#FFFFFF" stop-opacity="0.45" offset="0%"></stop>
            <stop stop-color="#C9D8FF" offset="100%"></stop>
        </linearGradient>
        <linearGradient x1="33.3264088%" y1="45.1967415%" x2="50%" y2="55.1733468%" id="linearGradient-43">
            <stop stop-color="#FFFFFF" offset="0%"></stop>
            <stop stop-color="#FFFFFF" stop-opacity="0.45" offset="100%"></stop>
        </linearGradient>
        <linearGradient x1="33.3264088%" y1="47.0005435%" x2="50%" y2="53.2305629%" id="linearGradient-44">
            <stop stop-color="#FFFFFF" offset="0%"></stop>
            <stop stop-color="#D0DDFF" stop-opacity="0.7" offset="100%"></stop>
        </linearGradient>
        <linearGradient x1="45.2081142%" y1="3.57687544%" x2="50%" y2="100%" id="linearGradient-45">
            <stop stop-color="#FFFFFF" offset="0%"></stop>
            <stop stop-color="#FFFFFF" stop-opacity="0.45" offset="100%"></stop>
        </linearGradient>
        <linearGradient x1="36.5551532%" y1="3.57687544%" x2="49.9550559%" y2="99.6776721%" id="linearGradient-46">
            <stop stop-color="#FFFFFF" offset="0%"></stop>
            <stop stop-color="#D3DFFF" offset="100%"></stop>
        </linearGradient>
    </defs>
    <g id="页面-1" stroke="none" stroke-width="1" fill="none" fill-rule="evenodd">
        <g id="登陆svg4" transform="translate(-0.000335, 0.000000)">
            <rect id="矩形" fill="#3A71FF" fill-rule="nonzero" x="0.500335334" y="0.5" width="674" height="431"></rect>
            <g id="编组-12" opacity="0.15" transform="translate(82.000335, 0.000000)" fill-rule="nonzero">
                <path d="M24,0 L501,0 C514.254834,0 525,10.745166 525,24 L525,31 L525,31 L0,31 L0,24 C0,10.745166 10.745166,0 24,0 Z" id="矩形备份" fill="url(#linearGradient-1)"></path>
                <path d="M0,31 L525,31 L525,300 C525,313.254834 514.254834,324 501,324 L24,324 C10.745166,324 0,313.254834 0,300 L0,31 L0,31 Z" id="矩形备份-2" fill="url(#linearGradient-2)"></path>
                <path d="M24,0 L140,0 L140,0 L140,31 L0,31 L0,24 C0,10.745166 10.745166,0 24,0 Z" id="矩形备份-27" fill="url(#linearGradient-3)"></path>
                <circle id="椭圆形备份-2" fill="url(#linearGradient-4)" cx="19.5" cy="17.5" r="5.5"></circle>
                <circle id="椭圆形备份-28" fill="url(#linearGradient-4)" cx="35.5" cy="17.5" r="5.5"></circle>
                <circle id="椭圆形备份-30" fill="url(#linearGradient-4)" cx="51.5" cy="17.5" r="5.5"></circle>
            </g>
            <g id="编组-9" transform="translate(32.000335, 57.000000)" fill-rule="nonzero">
                <path d="M0,31 L525,31 L525,300 C525,313.254834 514.254834,324 501,324 L24,324 C10.745166,324 0,313.254834 0,300 L0,31 L0,31 Z" id="矩形" fill="url(#linearGradient-5)"></path>
                <polygon id="矩形备份-28" fill="url(#linearGradient-6)" opacity="0.2" points="0 31 140 31 140 106 0 106"></polygon>
                <path d="M24,0 L501,0 C514.254834,0 525,10.745166 525,24 L525,31 L525,31 L0,31 L0,24 C0,10.745166 10.745166,0 24,0 Z" id="矩形" fill="url(#linearGradient-1)"></path>
                <path d="M24,0 L140,0 L140,0 L140,31 L0,31 L0,24 C0,10.745166 10.745166,0 24,0 Z" id="矩形备份-26" fill="url(#linearGradient-3)"></path>
                <circle id="椭圆形" fill="url(#linearGradient-4)" cx="19.5" cy="17.5" r="5.5"></circle>
                <circle id="椭圆形备份-26" fill="url(#linearGradient-4)" cx="35.5" cy="17.5" r="5.5"></circle>
                <circle id="椭圆形备份-27" fill="url(#linearGradient-4)" cx="51.5" cy="17.5" r="5.5"></circle>
            </g>
            <g id="编组-14" transform="translate(472.000335, 129.000000)" fill-rule="nonzero">
                <g id="编组-13">
                    <rect id="矩形备份-25" fill="url(#linearGradient-7)" x="0" y="0" width="170" height="302.373333" rx="10"></rect>
                    <path d="M10,0 L70,0 L70,0 L70,75 L0,75 L0,10 C0,4.4771525 4.4771525,0 10,0 Z" id="矩形备份-25" fill="url(#linearGradient-8)"></path>
                    <g id="编组-8" transform="translate(59.000000, 18.000000)" fill="#467AFF">
                        <circle id="椭圆形" cx="2" cy="2" r="2"></circle>
                        <rect id="矩形" x="9" y="0" width="43" height="4" rx="2"></rect>
                    </g>
                </g>
                <rect id="矩形备份-25" fill="url(#linearGradient-9)" x="20" y="36" width="129.310345" height="230" rx="10"></rect>
                <path d="M95.4054054,105 L95.4054054,134.324324 L120,134.324324 L120,175 L50,175 L50,105 L95.4054054,105 Z M89,111 L55,111 L55,170 L62.5555556,170 L62.5555556,152.870968 L81.4444445,152.870968 L81.4444445,170 L89,170 L89,111 Z M115,140 L96,140 L96,170 L115,170 L115,140 Z M77,159 L69,159 L69,170 L77,170 L77,159 Z M109,158 L109,163 L101,163 L101,158 L109,158 Z M109,146 L109,151 L101,151 L101,146 L109,146 Z M75.35,118 L75.35,124.65 L82,124.65 L82,130.35 L75.35,130.35 L75.35,137 L69.65,137 L69.65,130.35 L63,130.35 L63,124.65 L69.65,124.65 L69.65,118 L75.35,118 L75.35,118 Z" id="形状" fill="url(#linearGradient-10)"></path>
            </g>
            <g id="编组-15" transform="translate(442.000335, 49.000000)" fill-rule="nonzero">
                <rect id="矩形" stroke="url(#linearGradient-12)" stroke-width="10" fill="url(#linearGradient-11)" x="0" y="0" width="230" height="43" rx="21.5"></rect>
                <path d="M211.736503,30.5091579 L207.908071,26.6806971 L207.906412,26.6791226 C208.56244,25.9024467 209.097328,25.0310899 209.492958,24.0945671 C210.022201,22.8432393 210.290561,21.5145101 210.290561,20.1452948 C210.290561,18.7760514 210.022201,17.4473503 209.492958,16.1960225 C208.981935,14.9878235 208.250543,13.9029383 207.319111,12.9715064 C206.387651,12.0400745 205.302766,11.3086549 204.094567,10.7976312 C202.843239,10.2683606 201.51451,10 200.145295,10 C198.776051,10 197.44735,10.2683606 196.196022,10.7976312 C194.987824,11.3086549 193.902938,12.0400464 192.971506,12.9715064 C192.040046,13.9029383 191.308655,14.9878516 190.797631,16.1960225 C190.268361,17.4473503 190,18.7760795 190,20.1452948 C190,21.5145101 190.268361,22.8432393 190.797631,24.0945671 C191.308655,25.3027941 192.040046,26.3876794 192.971506,27.3191112 C193.902938,28.2505431 194.987852,28.9819628 196.196022,29.4929584 C197.44735,30.0222009 198.776079,30.2905614 200.145295,30.2905614 C201.51451,30.2905614 202.843239,30.0222009 204.094567,29.4929584 C205.016187,29.1031678 205.865747,28.5847497 206.630483,27.9475164 C206.632254,27.9493158 206.633913,27.9512276 206.635713,27.9529989 L210.464145,31.7814597 C210.639866,31.9571804 210.870074,32.0449845 211.100338,32.0449845 C211.330547,32.0449845 211.560867,31.9571242 211.736503,31.7814879 C212.087832,31.430159 212.087832,30.8604868 211.736503,30.5091579 Z M200.145295,28.5561003 C197.898685,28.5561003 195.786551,27.6812082 194.197952,26.0926374 C192.609353,24.5040384 191.734489,22.3919043 191.734489,20.1452948 C191.734489,17.8986852 192.609353,15.7865512 194.197952,14.1979522 C195.786523,12.6093532 197.898657,11.7344893 200.145295,11.7344893 C202.391932,11.7344893 204.504038,12.6093532 206.092637,14.1979522 C207.681208,15.7865231 208.5561,17.8986571 208.5561,20.1452948 C208.5561,22.3919324 207.681208,24.5040384 206.092637,26.0926374 C204.504038,27.6812082 202.391904,28.5561003 200.145295,28.5561003 Z" id="形状" fill="url(#linearGradient-13)"></path>
            </g>
            <g id="编组-39备份-2" transform="translate(167.000335, 220.000000)">
                <polygon id="路径-8" fill="url(#linearGradient-14)" fill-rule="nonzero" points="279 119.757354 6 119.757354 6 75.0130842 62 89 115 52 169 64 222.901894 6.29829621 278.593915 29"></polygon>
                <circle id="椭圆形" fill="url(#linearGradient-15)" fill-rule="nonzero" cx="6" cy="74" r="6"></circle>
                <circle id="椭圆形备份-29" fill="url(#linearGradient-15)" fill-rule="nonzero" cx="62" cy="88" r="6"></circle>
                <circle id="椭圆形备份-31" fill="url(#linearGradient-15)" fill-rule="nonzero" cx="115" cy="52" r="6"></circle>
                <circle id="椭圆形备份-33" fill="url(#linearGradient-15)" fill-rule="nonzero" cx="169" cy="63" r="6"></circle>
                <circle id="椭圆形备份-35" fill="url(#linearGradient-15)" fill-rule="nonzero" cx="223" cy="6" r="6"></circle>
                <circle id="椭圆形备份-36" fill="url(#linearGradient-15)" fill-rule="nonzero" cx="278" cy="29" r="6"></circle>
                <line x1="6" y1="75" x2="6.5" y2="124.343371" id="路径-12" stroke="url(#linearGradient-16)" stroke-width="4" stroke-linecap="round" stroke-linejoin="round"></line>
                <line x1="62" y1="88" x2="62.5" y2="124.343371" id="路径-12备份" stroke="url(#linearGradient-17)" stroke-width="4" stroke-linecap="round" stroke-linejoin="round"></line>
                <line x1="115" y1="52" x2="115.5" y2="124.343371" id="路径-12备份-2" stroke="url(#linearGradient-18)" stroke-width="4" stroke-linecap="round" stroke-linejoin="round"></line>
                <line x1="169" y1="63" x2="169.5" y2="124.343371" id="路径-12备份-3" stroke="url(#linearGradient-19)" stroke-width="4" stroke-linecap="round" stroke-linejoin="round"></line>
                <line x1="223" y1="6" x2="223.5" y2="124.343371" id="路径-12备份-4" stroke="url(#linearGradient-20)" stroke-width="4" stroke-linecap="round" stroke-linejoin="round"></line>
                <line x1="278" y1="29" x2="278.5" y2="124.343371" id="路径-12备份-17" stroke="url(#linearGradient-21)" stroke-width="4" stroke-linecap="round" stroke-linejoin="round"></line>
                <polyline id="路径-8" stroke="url(#linearGradient-22)" stroke-width="4" stroke-linecap="round" stroke-linejoin="round" points="6 74.714788 62 88.7017038 115 51.7017038 169 63.7017038 222.901894 6 278.593915 28.7017038"></polyline>
            </g>
            <g id="编组-11" transform="translate(251.000335, 131.000000)" fill-rule="nonzero">
                <path d="M88,41 L88,-8.53538876e-16 C65.3563253,-8.53538876e-16 47,18.3563253 47,41 L88,41 Z" id="椭圆形备份-6" fill="url(#linearGradient-23)" transform="translate(67.500000, 20.500000) scale(-1, 1) translate(-67.500000, -20.500000) "></path>
                <path d="M41,88 C63.6436747,88 82,69.6436747 82,47 C82,24.3563253 63.6436747,6 41,6 C18.3563253,6 1.42108547e-14,24.3563253 1.42108547e-14,47 L41,47 L41,88 Z" id="椭圆形备份-5" fill="url(#linearGradient-24)" transform="translate(41.000000, 47.000000) scale(-1, 1) rotate(90.000000) translate(-41.000000, -47.000000) "></path>
            </g>
            <g id="2.5医疗防护矢量插画" transform="translate(-0.000000, 209.000000)" fill-rule="nonzero">
                <g id="编组" transform="translate(0.000000, 132.000000)">
                    <path d="M167.000156,34.0950632 C167.000156,34.2512364 166.995477,34.4072754 166.989594,34.5634486 C166.987321,34.6242273 166.983979,34.6850061 166.980904,34.7457848 C166.97716,34.8202488 166.973283,34.894847 166.968336,34.9693111 C166.964058,35.0329074 166.958843,35.0965037 166.953629,35.1601 C166.947613,35.2341615 166.941596,35.3080888 166.934377,35.3821503 C166.928093,35.4462833 166.921007,35.5104163 166.913921,35.5745493 C166.905765,35.6479399 166.897476,35.7214648 166.888117,35.7948554 C166.879961,35.8591226 166.871003,35.9233897 166.862046,35.987791 C166.851751,36.0610475 166.841055,36.134304 166.829557,36.2075605 C166.81953,36.2719619 166.8087,36.3363632 166.797737,36.4008987 C166.785303,36.4738868 166.772334,36.5470091 166.758697,36.6198631 C166.746664,36.6843986 166.734096,36.7489341 166.721127,36.8133354 C166.706554,36.8861894 166.691313,36.9590434 166.675536,37.0318974 C166.661498,37.0964329 166.647192,37.1611025 166.632352,37.2255038 C166.615506,37.2982237 166.598125,37.3708093 166.580209,37.4435291 C166.564299,37.5080646 166.548122,37.5726001 166.531276,37.6371356 C166.51229,37.7097212 166.492503,37.7824411 166.472448,37.8550267 C166.454533,37.9196964 166.436483,37.9842319 166.417766,38.0487673 C166.397042,38.1200113 166.375383,38.1912553 166.353457,38.2624992 C166.333536,38.327303 166.313614,38.3921069 166.292757,38.4569107 C166.269761,38.528423 166.245829,38.5998011 166.221764,38.6713134 C166.199971,38.7357147 166.178312,38.800116 166.155717,38.8645173 C166.130448,38.9361638 166.104243,39.0078103 166.07777,39.0795909 C166.054106,39.1437239 166.030708,39.2077227 166.006242,39.2717215 C165.978833,39.343368 165.950356,39.4150144 165.921744,39.4865267 C165.896208,39.5505255 165.870939,39.6145243 165.8446,39.6785232 C165.814919,39.7503038 165.784035,39.8219503 165.753284,39.8937309 C165.72601,39.957193 165.699136,40.0206551 165.67106,40.0839831 C165.638972,40.1564346 165.605414,40.2287519 165.572123,40.3010692 C165.543244,40.3637263 165.5149,40.4265176 165.485219,40.4890406 C165.450591,40.5618945 165.414626,40.6347485 165.378795,40.7074684 C165.348311,40.7694546 165.318497,40.8314409 165.287211,40.893293 C165.249909,40.9672203 165.210869,41.0410135 165.172364,41.1148067 C165.140811,41.1751829 165.109793,41.2356933 165.077438,41.2960696 C165.031045,41.3826088 164.982646,41.4690139 164.934515,41.555419 C164.906839,41.6050617 164.879966,41.6548386 164.851755,41.7046154 C164.79266,41.8085967 164.731427,41.9124438 164.669792,42.0161568 C164.650806,42.0482233 164.632623,42.0804239 164.613371,42.1126246 C164.531948,42.2481357 164.448387,42.3836468 164.362686,42.5188895 C164.33969,42.5551153 164.315491,42.591341 164.292227,42.6275668 C164.228587,42.726718 164.164812,42.825735 164.098899,42.9246178 C164.065207,42.9750655 164.030178,43.0253791 163.995951,43.0758268 C163.938728,43.1602193 163.881639,43.244746 163.822678,43.3290044 C163.783772,43.3846847 163.743528,43.4400967 163.703954,43.4956428 C163.647667,43.5745345 163.591647,43.6535602 163.533889,43.7323177 C163.491373,43.7902789 163.447654,43.8482401 163.404469,43.9062012 C163.347647,43.9824095 163.290825,44.0584835 163.232666,44.1344234 C163.187209,44.1938605 163.140682,44.2531633 163.094289,44.3124662 C163.03613,44.3869302 162.977971,44.4612601 162.918609,44.5355899 C162.873953,44.5915386 162.828362,44.6472189 162.782905,44.7030334 C162.713114,44.7887676 162.642655,44.8745019 162.571126,44.9602361 C162.524332,45.0161848 162.477136,45.0721334 162.429673,45.1279479 C162.357342,45.2130113 162.284076,45.2979405 162.21014,45.3827356 C162.162143,45.437745 162.114145,45.4927545 162.065479,45.547764 C161.987399,45.6359133 161.907848,45.7237942 161.827896,45.8116752 C161.78177,45.8623912 161.736313,45.9131073 161.689518,45.9636891 C161.594459,46.0665971 161.497527,46.1693708 161.399928,46.2720104 C161.36677,46.3068945 161.334415,46.3419127 161.300991,46.3767967 C161.169164,46.514052 161.035064,46.651039 160.898692,46.7876235 C160.866203,46.8202266 160.832511,46.8526956 160.799621,46.8852988 C160.694935,46.9892801 160.589447,47.0931272 160.482087,47.1968402 C160.430614,47.2464828 160.37807,47.2959914 160.326061,47.3454999 C160.234879,47.4323075 160.143295,47.5191151 160.050241,47.6057885 C159.992484,47.6595905 159.933924,47.7132582 159.875364,47.766926 C159.785251,47.8495743 159.694603,47.9320885 159.602886,48.0144685 C159.546332,48.0653188 159.489242,48.116169 159.43202,48.166885 C159.298187,48.2854908 159.162483,48.4038282 159.025041,48.5218973 C158.986402,48.5550371 158.948432,48.5884453 158.909526,48.6215851 C158.735183,48.7701107 158.557899,48.9183679 158.377941,49.0660884 C158.334489,49.1017774 158.289967,49.1373323 158.246248,49.1728872 C158.105196,49.2876021 157.962539,49.4020486 157.818145,49.5163609 C157.759852,49.562381 157.70156,49.6084011 157.642733,49.6542871 C157.492188,49.7719536 157.339772,49.8893519 157.185617,50.0064818 C157.144839,50.0374749 157.104864,50.0686022 157.063818,50.0994612 C156.870624,50.2451691 156.674354,50.3902063 156.475545,50.5349751 C156.425809,50.5710666 156.375271,50.607024 156.325268,50.6431156 C156.170712,50.7547446 156.014419,50.865971 155.856387,50.9769291 C155.792613,51.0217417 155.728571,51.0665543 155.664262,51.1113669 C155.495936,51.2283626 155.325604,51.34509 155.1534,51.461549 C155.111553,51.4898588 155.070641,51.5181685 155.028526,51.5463441 C154.816347,51.688832 154.600958,51.8309174 154.38303,51.9724661 C154.299736,52.0265364 154.215238,52.0804725 154.131142,52.1344086 C154.032339,52.1977366 153.933937,52.2610645 153.834064,52.3242583 C153.745021,52.3806095 153.654774,52.4365581 153.564795,52.4927751 C153.464521,52.555298 153.364515,52.617821 153.263171,52.6802098 C153.171855,52.7362926 153.079469,52.7922412 152.987351,52.8481899 C152.885339,52.9101761 152.783327,52.9720282 152.680246,53.0337461 C152.586657,53.0896948 152.491865,53.1455093 152.39734,53.2013237 C152.293723,53.262505 152.190107,53.3236862 152.085421,53.3847333 C151.989158,53.440682 151.891959,53.4964964 151.794894,53.5523109 C151.689807,53.6126871 151.584587,53.6731976 151.47843,53.7333054 C151.380028,53.7891199 151.28069,53.8446661 151.181352,53.9002122 C151.07426,53.9601859 150.967033,54.0200255 150.858871,54.0797309 C150.758464,54.1351428 150.657254,54.1902865 150.55591,54.2455643 C150.446813,54.3050013 150.337447,54.3644383 150.22728,54.4236071 C150.125,54.4786165 150.021919,54.5333576 149.918703,54.5880988 C149.807199,54.6472675 149.695427,54.706302 149.582719,54.7653365 C149.478702,54.8198093 149.37415,54.8740138 149.269196,54.9282182 C149.155553,54.9869844 149.041508,55.0456164 148.926661,55.1041143 C148.820771,55.1580504 148.714214,55.2119865 148.607389,55.2656543 C148.49174,55.3238838 148.375689,55.3819791 148.25897,55.4399403 C148.150808,55.4937423 148.041978,55.5472759 147.93288,55.6008095 C147.815225,55.6585023 147.697036,55.716061 147.578311,55.7736197 C147.468411,55.8267507 147.35811,55.8798818 147.247274,55.9328787 C147.12748,55.9901691 147.007018,56.0473252 146.886154,56.1042131 C146.773981,56.1570758 146.661541,56.2098044 146.548566,56.262533 C146.427034,56.3191525 146.3047,56.3756378 146.181964,56.4319889 C146.06792,56.4844492 145.953607,56.5367753 145.838627,56.5889672 C145.714554,56.6453183 145.589814,56.7014011 145.464538,56.7574839 C145.348889,56.8092733 145.232973,56.8610627 145.116254,56.9127179 C144.990042,56.9685324 144.863029,57.0242127 144.735748,57.0797589 C144.618093,57.1311457 144.500171,57.1825326 144.381581,57.2336512 C144.253497,57.288929 144.124478,57.3439384 143.995192,57.3989479 C143.884356,57.4461755 143.773252,57.493269 143.661614,57.5402283 C143.35999,57.6671525 143.056361,57.7935401 142.748855,57.9189885 C142.297087,58.1032031 141.839972,58.2840635 141.380317,58.4631796 C141.259587,58.5102731 141.13859,58.556964 141.017325,58.603655 C140.605534,58.7622432 140.191336,58.9190873 139.773662,59.0736504 C139.718578,59.0940442 139.664297,59.1148405 139.609213,59.1351 C139.143675,59.3064344 138.673457,59.4746828 138.200699,59.6409187 C138.079034,59.6837187 137.956833,59.7259821 137.834767,59.7685138 C137.432869,59.9081842 137.028698,60.0462445 136.621854,60.1822923 C136.533346,60.2119437 136.445506,60.2419977 136.35673,60.2715149 C135.876886,60.430774 135.393299,60.5870814 134.90677,60.741242 C134.78965,60.7782728 134.671861,60.8147669 134.554474,60.8516635 C134.148967,60.9787219 133.74132,61.1040361 133.3314,61.2277403 C133.220698,61.2611485 133.110531,61.2949592 132.999561,61.3279649 C132.505277,61.4755512 132.007919,61.6205883 131.507486,61.7632104 C131.401596,61.7933985 131.294905,61.8227816 131.188748,61.8527014 C130.76947,61.9709047 130.348052,62.0873637 129.924629,62.2020786 C129.798284,62.2362918 129.672073,62.2707733 129.545327,62.3048523 C129.036604,62.4410343 128.525475,62.5752037 128.011136,62.7064214 C127.92704,62.7278885 127.842142,62.7486847 127.757911,62.7700177 C127.31176,62.8828541 126.863335,62.9938122 126.413038,63.102892 C126.276933,63.1358976 126.140962,63.1689033 126.004456,63.2015065 C125.482363,63.3264182 124.958533,63.4494516 124.431226,63.569399 C123.815277,63.7094719 123.195852,63.8460563 122.573084,63.9792866 C122.430027,64.0098772 122.285231,64.0385894 122.141773,64.0687775 C121.660592,64.1702096 121.178743,64.271105 120.693684,64.3683778 C120.46252,64.4148005 120.229082,64.458808 119.997115,64.5042914 C119.597624,64.5826464 119.198401,64.6612697 118.796503,64.736807 C118.53432,64.7861814 118.269998,64.8330065 118.006746,64.8811733 C117.631989,64.9497339 117.2575,65.0185628 116.880737,65.0847083 C116.603179,65.1334118 116.323883,65.1801028 116.045389,65.2274646 C115.680125,65.2897192 115.31486,65.3521079 114.947724,65.4120817 C114.660273,65.459041 114.371484,65.5041219 114.083096,65.5498737 C113.722378,65.6068957 113.361659,65.6639177 112.99947,65.7189271 C112.704799,65.7636055 112.408924,65.8066739 112.113183,65.8500106 C111.75447,65.902605 111.395623,65.9547969 111.035439,66.0052446 C110.735821,66.0472397 110.4354,66.087893 110.134846,66.1284121 C109.775866,66.1768473 109.416618,66.2247458 109.056434,66.2711684 C108.636086,66.3253728 108.215471,66.3787723 107.793518,66.4301591 C107.6891,66.4429052 107.584949,66.4560538 107.480396,66.4686658 C106.913649,66.5366897 106.34543,66.601896 105.776008,66.6648214 C105.639769,66.6798484 105.503129,66.6943387 105.366623,66.7092315 C104.888785,66.7610209 104.410011,66.8110661 103.930434,66.8593671 C103.80703,66.8718448 103.683894,66.8845909 103.560357,66.8968004 C102.988528,66.9532857 102.415497,67.0072218 101.841395,67.0586087 C101.714515,67.0700131 101.587234,67.0807466 101.460221,67.0918827 C100.97904,67.1340119 100.497191,67.1743969 100.014673,67.2130377 C99.8777659,67.2240395 99.7409924,67.2353098 99.6039514,67.2459092 C99.0231652,67.2912584 98.441443,67.3343268 97.858785,67.3745776 C97.7754909,67.3803469 97.692063,67.3857137 97.6087688,67.3913488 C97.0342664,67.4302579 96.4590955,67.4671545 95.8831224,67.5012335 C95.8438151,67.5035144 95.8045077,67.5061978 95.7652004,67.5084787 C95.1749215,67.5429602 94.5838405,67.5743559 93.9922247,67.603739 C93.8871377,67.6089716 93.7820507,67.6143384 93.6769637,67.6194368 C93.1023276,67.6470757 92.5271567,67.6722995 91.951451,67.6951083 C91.8442248,67.6994018 91.7369986,67.7032927 91.6297724,67.7074519 C91.0390925,67.7298582 90.4480115,67.7505203 89.8563956,67.7678282 C89.8090664,67.7691699 89.7617371,67.7702432 89.7144078,67.7715849 C89.2495382,67.7848677 88.7842674,67.7953329 88.3189967,67.8053956 C87.9380897,67.8137141 87.5569153,67.8206909 87.1757409,67.8268627 C86.865293,67.8319611 86.5548451,67.8367912 86.2442635,67.8404138 C85.8605489,67.8449756 85.4765668,67.8477931 85.0927185,67.850074 C84.7848108,67.8519524 84.4769032,67.8540991 84.1688619,67.8545016 C83.779933,67.8551724 83.3910041,67.8538308 83.0020752,67.8522207 C82.6995155,67.8510132 82.3968221,67.8503423 82.0942624,67.8477931 C81.6954398,67.8444389 81.296751,67.8388038 80.8981958,67.8331687 C80.6045939,67.8290094 80.3108583,67.8257893 80.0173901,67.8204226 C79.6499867,67.8137141 79.2829843,67.8044564 78.9157146,67.7957354 C78.6060689,67.7883561 78.2962895,67.7819159 77.9867775,67.7731949 C77.6148283,67.7627297 77.2432802,67.749447 76.8715984,67.7369692 C76.5674343,67.7266382 76.2630028,67.7175146 75.9589725,67.7059761 C75.5798035,67.6914858 75.2013031,67.6741779 74.8225353,67.6575409 C74.5265268,67.6445265 74.2303847,67.6328537 73.9346436,67.6186318 C73.543843,67.5998481 73.1537108,67.5779784 72.7634449,67.5569138 C72.4806726,67.5416185 72.1973655,67.5277991 71.9149943,67.5114304 C71.5089519,67.4878166 71.1038455,67.4609827 70.6986054,67.4348197 C70.4333476,67.4177802 70.167555,67.4023507 69.9025646,67.3842378 C69.4441125,67.3529763 68.9869973,67.3180923 68.5296148,67.2837449 C68.3190397,67.2679129 68.1079298,67.253691 67.897622,67.2371881 C67.2303329,67.1847279 66.564247,67.1291818 65.8996318,67.0701472 C65.8207497,67.0631704 65.7422687,67.0549861 65.6633866,67.0478751 C65.0780546,66.9951465 64.4933911,66.9406738 63.910332,66.8828467 C63.7468187,66.8666122 63.5841077,66.8483652 63.4208618,66.8317282 C62.909064,66.7795363 62.3973999,66.7268077 61.8876076,66.6705907 C61.6379925,66.643086 61.3897144,66.6131662 61.1406341,66.5847223 C60.718548,66.5365555 60.2963281,66.4885228 59.8757127,66.4375385 C59.6000264,66.4041303 59.3256771,66.3685754 59.050793,66.3339597 C58.6585216,66.2845853 58.2662503,66.2354793 57.8754496,66.1836899 C57.5886663,66.14572 57.3030864,66.1057375 57.0171053,66.0665601 C56.6399418,66.0147707 56.2627784,65.9629813 55.8870857,65.908911 C55.3771596,65.8355203 54.8679021,65.7611905 54.3607837,65.6836406 C54.284843,65.672102 54.2091696,65.6600267 54.1333626,65.648354 C53.583327,65.5635589 53.0348958,65.4766172 52.4884701,65.386992 C52.4460876,65.3800152 52.4035715,65.3733067 52.3611891,65.3663299 C51.8017946,65.2741555 51.2448067,65.1786269 50.6892895,65.0813541 C50.5899515,65.0639121 50.4906135,65.0467384 50.3914092,65.0291622 C49.8515347,64.9334994 49.3136657,64.8354216 48.7778022,64.7349287 C48.678999,64.7164133 48.5804632,64.6976296 48.4817937,64.6788459 C47.934031,64.5749987 47.3878727,64.4692732 46.844522,64.3604618 C46.7790098,64.3473132 46.7140323,64.333628 46.64852,64.3203452 C46.1639967,64.2226699 45.6814789,64.1225795 45.2006991,64.0207449 C45.0480154,63.9884101 44.8955991,63.9558069 44.7433166,63.9230696 C44.2827253,63.8240525 43.8238721,63.7232913 43.3668906,63.6206517 C43.2810562,63.6013313 43.1945533,63.5826818 43.1088525,63.5632272 C42.5771336,63.4427431 42.0484898,63.3191731 41.5219852,63.1935905 C41.3853453,63.1609873 41.2493739,63.1277133 41.1130015,63.0947076 C40.6957285,62.9938122 40.2800599,62.8913068 39.8662631,62.7873255 C39.7316287,62.7535148 39.5967269,62.7199725 39.4624936,62.6857593 C38.9429413,62.5534682 38.4256619,62.4190305 37.9117249,62.2815068 C37.8272274,62.2589664 37.7433985,62.2356209 37.6590347,62.2128121 C37.2459064,62.1014515 36.8351846,61.9880783 36.4259335,61.8734977 C36.1844741,61.8058763 35.9442179,61.7373157 35.7040954,61.6684868 C35.3935138,61.5795325 35.0838681,61.4897732 34.7755594,61.3989405 C34.5357043,61.3282332 34.2966514,61.2568551 34.058267,61.1850744 C33.7523649,61.0929001 33.4479334,60.9996523 33.1445715,60.9054654 C32.9085937,60.8323431 32.6730169,60.7588182 32.4386435,60.6846225 C32.1348805,60.5882889 31.8329893,60.4906136 31.5317666,60.3922674 C31.3022063,60.3174009 31.0725123,60.2426685 30.8444227,60.1667286 C30.5390554,60.064894 30.2360946,59.9614494 29.9334012,59.8576023 C29.714002,59.7823333 29.4938006,59.7076009 29.275872,59.6313927 C28.9620817,59.5215079 28.6513664,59.4094765 28.3406511,59.297445 C28.1380979,59.2244569 27.9342077,59.1522737 27.7329915,59.0783464 C27.3924614,58.9531663 27.0556749,58.8253029 26.7190221,58.6974394 C26.5516316,58.6338431 26.382503,58.5715885 26.2161821,58.5074555 C25.7154813,58.3141174 25.2186577,58.1182301 24.7269146,57.9189885 C17.7852891,55.1061268 12.3095337,51.9222868 8.30098557,48.524849 C7.70709688,48.0215795 7.14542952,47.5136141 6.61598351,47.0013553 C6.483622,46.8733577 6.35326598,46.7449576 6.22491543,46.6164233 C5.96821433,46.3593547 5.71966883,46.1012128 5.47901155,45.8421316 C5.35868291,45.7126582 5.24049345,45.5827822 5.12417576,45.452772 C4.89167409,45.1927517 4.66719433,44.9317922 4.45073647,44.6700277 C3.58503875,43.6229696 2.84822638,42.5622263 2.24029935,41.4920911 C2.01234342,41.0907904 1.8024368,40.688148 1.61071316,40.284298 C1.48289741,40.0151542 1.36310356,39.7454737 1.25146532,39.4752565 C0.97216917,38.7999819 0.743277357,38.1218897 0.564656175,37.4421874 C0.493261182,37.170226 0.429888098,36.8981305 0.374536923,36.6257666 C0.18094151,35.6723588 0.0861492809,34.7164017 0.0898928386,33.760713 L-6.56502034e-15,55.9065815 C-0.034847852,64.6453035 8.1829298,73.3973082 24.6372029,80.064857 C25.128946,80.2640986 25.6259033,80.4601201 26.1266041,80.6533241 C26.2926576,80.717457 26.4613851,80.7795775 26.6283745,80.8429054 C26.9654284,80.970903 27.3024823,81.0989007 27.6432798,81.2242149 C27.8446297,81.2982764 28.0485199,81.3703254 28.2512068,81.4434477 C28.5617884,81.5554792 28.87237,81.6673764 29.185893,81.7772612 C29.4039552,81.8536036 29.6242903,81.9283359 29.8438232,82.0037392 C30.1463829,82.1074521 30.44921,82.2110309 30.7544436,82.3127313 C30.9826669,82.3888054 31.2124947,82.4635377 31.4421887,82.5384043 C31.7432777,82.6366163 32.0449014,82.7342916 32.3485307,82.8304911 C32.5831716,82.9049551 32.818882,82.9783457 33.0551272,83.0516022 C33.3584891,83.145655 33.6627869,83.2389027 33.9685553,83.3310771 C34.2069397,83.4028578 34.4458589,83.4742359 34.6855803,83.5449432 C34.993889,83.6357758 35.3035347,83.7255352 35.61425,83.8144895 C35.8543725,83.8833184 36.0947624,83.951879 36.3362219,84.0195004 C36.4499993,84.0512985 36.5621723,84.0844384 36.6762171,84.1161023 C36.972493,84.198214 37.270908,84.2784473 37.5690556,84.3588148 C37.6535531,84.3816236 37.7372483,84.4049691 37.8217458,84.4275095 C38.3356828,84.564899 38.8529622,84.6993368 39.3725146,84.8316278 C39.5067478,84.865841 39.6416496,84.8993833 39.776284,84.933194 C40.1902145,85.0373095 40.6057494,85.1396808 41.0230224,85.2405762 C41.1593949,85.2735818 41.2953662,85.3068558 41.4320061,85.339459 C41.9585107,85.4650416 42.4872883,85.5886116 43.0188735,85.7090957 C43.1045742,85.7285503 43.1910771,85.7471998 43.2770452,85.7665202 C43.733893,85.869294 44.1926125,85.9699211 44.6530701,86.0689381 C44.8054864,86.1016754 44.95817,86.1342786 45.1109874,86.1667476 C45.5914998,86.268448 46.0734828,86.3684042 46.5577388,86.4660795 C46.6235184,86.4793623 46.688897,86.4931818 46.7546766,86.5063304 C46.7732607,86.5100871 46.7915774,86.513978 46.8100278,86.5176006 C47.3349281,86.6225211 47.8627697,86.7243556 48.3918146,86.8245802 C48.4903504,86.8432297 48.5888862,86.8620135 48.6875557,86.8805288 C49.2234192,86.9810217 49.761422,87.0790996 50.3012965,87.1747624 C50.4005007,87.1923385 50.4998387,87.2096464 50.599043,87.2269543 C51.1545602,87.3243612 51.7114144,87.4197557 52.2709426,87.5119301 C52.313325,87.5189069 52.3558412,87.5256154 52.3982236,87.5325922 C52.944783,87.6222173 53.4933479,87.7092933 54.0435172,87.7939542 C54.1191905,87.8056269 54.1945965,87.817568 54.2704035,87.8291066 C54.684334,87.8923004 55.0990668,87.954555 55.5150028,88.0150654 C55.6085917,88.0286165 55.7031165,88.0409601 55.7968392,88.054377 C56.1726656,88.1084473 56.5498291,88.1602367 56.9271262,88.2120261 C57.2129736,88.2512035 57.4984198,88.291186 57.7850694,88.329156 C58.1758701,88.3808112 58.5681415,88.4300513 58.9604128,88.4794257 C59.2354306,88.5140414 59.5097799,88.5495963 59.7855999,88.5830045 C60.2060817,88.6339889 60.6281678,88.6818873 61.0501202,88.7300541 C61.2993342,88.7584981 61.5476123,88.7884178 61.7973611,88.8159226 C62.3071534,88.8720054 62.8188175,88.9248681 63.3306154,88.9769259 C63.4837001,88.9924895 63.635849,89.0097974 63.7890675,89.0250927 C63.799496,89.026166 63.8099244,89.0269711 63.8202192,89.0280444 C64.4046153,89.0861398 64.9907495,89.1406125 65.5774185,89.1934753 C65.6549636,89.2004521 65.7319739,89.2083681 65.809519,89.2153449 C66.4741342,89.2743794 67.1403538,89.3300597 67.807643,89.3823858 C68.0175496,89.3988887 68.2282584,89.4129764 68.4382987,89.4288084 C68.8960824,89.46329 69.3535986,89.4980398 69.8124518,89.5294355 C70.0773085,89.5475484 70.3429674,89.5629778 70.6080915,89.5800174 C71.013599,89.6060462 71.4188392,89.6330143 71.8248815,89.6566281 C71.850819,89.658104 71.8767565,89.6599823 71.902694,89.6614582 C72.158994,89.6762168 72.4162299,89.6881579 72.6727973,89.7021115 C73.0633306,89.7231761 73.4535965,89.7450457 73.8446646,89.7638294 C74.1402719,89.7780514 74.4364141,89.7897241 74.7322888,89.8027386 C75.1110566,89.8193756 75.4896908,89.8366834 75.8689934,89.8511737 C76.1730237,89.8628465 76.4773215,89.87197 76.7816193,89.8821669 C77.1533011,89.8946446 77.5248492,89.9079274 77.8967984,89.9183926 C78.2063104,89.9271136 78.5160898,89.9335537 78.8257355,89.9409331 C79.1928715,89.9496541 79.5600076,89.9589118 79.927411,89.9656202 C79.9926559,89.9668278 80.0579007,89.9688403 80.1231456,89.9700478 C80.3513689,89.9740729 80.5798597,89.9752804 80.8082167,89.9785005 C81.2069056,89.9841356 81.6054608,89.9899049 82.0042834,89.993125 C82.306843,89.9956742 82.6094027,89.996345 82.9120961,89.9975526 C83.301025,89.9990284 83.6899539,90 84.0788828,90 C84.3869241,89.9992968 84.6948318,89.9972842 85.0027394,89.9954058 C85.3865877,89.9929908 85.7704361,89.9901732 86.1542845,89.9857456 C86.4648661,89.9821231 86.7753139,89.977293 87.0858955,89.9721945 C87.4670699,89.9660227 87.8481106,89.9590459 88.2291513,89.9507274 C88.3763534,89.9475074 88.5238228,89.9458973 88.6710248,89.9424089 C88.9889598,89.9347613 89.3067611,89.9259061 89.6245625,89.9167826 C89.6718917,89.9154409 89.719221,89.9143675 89.7665503,89.9130258 C90.3581661,89.895718 90.9492471,89.8750559 91.539927,89.8526496 C91.6471532,89.8486245 91.7543794,89.8445994 91.8616056,89.840306 C92.4373113,89.8174972 93.0126159,89.7922734 93.587252,89.7646345 C93.692339,89.759536 93.7972923,89.7541692 93.9023793,89.7489366 C94.4939951,89.7195535 95.0852099,89.6882921 95.6754887,89.6536764 C95.7149297,89.6513955 95.7541034,89.6488463 95.7935445,89.6464312 C96.3695175,89.6123522 96.9445547,89.5755898 97.5190572,89.5365465 C97.602485,89.5309114 97.6859129,89.5255446 97.7693407,89.5197753 C97.8217505,89.5161527 97.874294,89.5129327 97.9265702,89.5093101 C98.4566847,89.4722793 98.9858633,89.432431 99.5145071,89.391241 C99.6514144,89.3805074 99.7881879,89.3692372 99.9249615,89.3583695 C100.407746,89.3197287 100.889729,89.2793437 101.37091,89.2370803 C101.49779,89.2259443 101.624937,89.2152107 101.751684,89.2039405 C102.325919,89.1525536 102.89895,89.0986175 103.470779,89.0421322 C103.594182,89.0299228 103.717319,89.0170425 103.840589,89.0046989 C104.320433,88.9563979 104.799207,88.9063528 105.277179,88.8545634 C105.413551,88.8398047 105.549924,88.8253144 105.686163,88.8102875 C106.255718,88.747362 106.823937,88.6820215 107.390685,88.6141318 C107.495103,88.6015199 107.599254,88.5883713 107.703673,88.5756252 C107.99313,88.5403386 108.282855,88.5055887 108.57151,88.4689605 C108.703738,88.4521893 108.834762,88.4336739 108.966723,88.4166344 C109.326906,88.3702118 109.686154,88.3223133 110.045135,88.2738782 C110.345689,88.233359 110.646109,88.1927057 110.945594,88.1507106 C111.305778,88.1002629 111.664624,88.0479369 112.023337,87.9954766 C112.319078,87.9521399 112.614953,87.9090715 112.909625,87.8643931 C113.271814,87.8093837 113.632532,87.7524958 113.993117,87.6953397 C114.281639,87.6497221 114.570427,87.604507 114.858013,87.5575477 C115.225015,87.497574 115.590012,87.4351852 115.955276,87.3729306 C116.234038,87.3254346 116.513334,87.2788778 116.791026,87.2300402 C117.167654,87.1638946 117.54201,87.0950657 117.916633,87.0265052 C118.179885,86.9783383 118.444207,86.931379 118.706524,86.8820047 C119.108689,86.8063332 119.508046,86.7277099 119.907805,86.649355 C120.139504,86.6038715 120.372674,86.5599981 120.603572,86.5137097 C121.088897,86.4163027 121.57088,86.3154073 122.052462,86.2139752 C122.195653,86.1837871 122.340181,86.1550748 122.483105,86.1246184 C123.105873,85.9913882 123.725298,85.8548037 124.341247,85.7147308 C124.351007,85.71245 124.361034,85.7104374 124.370794,85.7081565 C124.888073,85.59049 125.402144,85.4694692 125.914477,85.3468383 C126.050983,85.3142352 126.186954,85.2812295 126.323059,85.2482238 C126.773356,85.1391441 127.221781,85.028186 127.667932,84.9153495 C127.752162,84.8940166 127.837061,84.8732203 127.921157,84.8517532 C128.435495,84.7205355 128.946625,84.5863661 129.455348,84.4501842 C129.582227,84.4162393 129.708439,84.3817578 129.834918,84.3474104 C130.258207,84.2326956 130.679491,84.1162365 131.098636,83.9980333 C131.204792,83.9681135 131.311617,83.9385962 131.417507,83.9084081 C131.91794,83.7659202 132.415298,83.6207489 132.909582,83.4732967 C133.020551,83.4401569 133.130585,83.4063462 133.241288,83.3730721 C133.651207,83.249368 134.058988,83.1240537 134.464495,82.9968611 C134.581882,82.9600987 134.699671,82.9236046 134.816657,82.8865739 C135.303186,82.7324132 135.786773,82.5759717 136.266617,82.4168468 C136.355393,82.3874637 136.443233,82.3572755 136.531741,82.3276241 C136.938452,82.1915763 137.342489,82.0536502 137.744253,81.9139798 C137.866587,81.8714481 137.989055,81.8290506 138.110854,81.7862505 C138.583478,81.6200146 139.053428,81.4519004 139.518833,81.280566 C139.574318,81.2601723 139.628867,81.2392419 139.684218,81.2187139 C140.101758,81.064285 140.515822,80.9074409 140.927213,80.7489868 C141.048477,80.7022959 141.169474,80.6554708 141.290204,80.6085115 C141.749726,80.4293953 142.206841,80.2486691 142.658742,80.0643203 C142.966248,79.9388719 143.269878,79.8124844 143.571501,79.6855601 C143.606397,79.6709356 143.642228,79.6564453 143.677123,79.6416867 C143.753732,79.6093519 143.828871,79.5766145 143.905079,79.5441455 C144.034366,79.4891361 144.163385,79.4341266 144.291468,79.3788488 C144.410192,79.3277303 144.52798,79.2763434 144.645635,79.2249565 C144.772916,79.1694104 144.89993,79.1138643 145.026007,79.0580498 C145.14286,79.0063946 145.259044,78.954471 145.37496,78.9025474 C145.499701,78.8465988 145.624174,78.7906501 145.747979,78.7345673 C145.863094,78.6822413 145.977673,78.6299152 146.091852,78.577455 C146.214587,78.5209696 146.337055,78.4644843 146.45872,78.4078648 C146.571562,78.3552704 146.683869,78.302676 146.795774,78.2498133 C146.916771,78.1927913 147.037367,78.1355009 147.157295,78.0782106 C147.267864,78.0253478 147.378031,77.9723509 147.487664,77.919354 C147.606789,77.8617953 147.725246,77.8039683 147.843302,77.7461413 C147.952266,77.6927419 148.060829,77.6392083 148.168858,77.5855405 C148.285443,77.5275793 148.401493,77.4696181 148.516875,77.4113886 C148.623834,77.3575867 148.730525,77.3036506 148.836548,77.2495803 C148.951261,77.1910824 149.065172,77.1325846 149.178682,77.0738184 C149.283769,77.0194798 149.388589,76.9651412 149.49274,76.9106684 C149.605181,76.851768 149.716952,76.7927335 149.828323,76.7336989 C149.931405,76.6789578 150.034353,76.6242167 150.136498,76.5693414 C150.247067,76.5099044 150.3567,76.4503331 150.466199,76.3907619 C150.567007,76.3357525 150.667816,76.2808772 150.767823,76.2257335 C150.876653,76.1656257 150.984682,76.1053836 151.092443,76.0451415 C151.191112,75.9899979 151.289782,75.9347201 151.387515,75.8793081 C151.494206,75.8189319 151.599828,75.7582873 151.705316,75.6975086 C151.802248,75.6418283 151.899179,75.586148 151.995175,75.5303335 C152.099994,75.4692864 152.203878,75.407971 152.307628,75.3466556 C152.401886,75.2909753 152.496277,75.235295 152.589732,75.1794805 C152.693482,75.1174942 152.795895,75.0552396 152.898442,74.992985 C152.990025,74.9373047 153.08201,74.8817586 153.172657,74.8260783 C153.274402,74.7635553 153.374943,74.700764 153.475618,74.6379728 C153.56533,74.5820241 153.655309,74.5262096 153.744085,74.4699927 C153.843957,74.406933 153.942493,74.3434709 154.041296,74.2801429 C154.109082,74.2366721 154.17807,74.1933353 154.24532,74.1497303 C154.261498,74.1392651 154.277007,74.1286657 154.293184,74.1182005 C154.511113,73.9766517 154.726367,73.8347005 154.938681,73.6920784 C154.980528,73.6639028 155.02144,73.6355931 155.063154,73.6075517 C155.235491,73.4909585 155.406091,73.3740969 155.574684,73.256967 C155.63886,73.2122886 155.702634,73.1676102 155.766274,73.1229318 C155.924306,73.0118395 156.080599,72.9006131 156.235289,72.7889841 C156.285292,72.7528926 156.335964,72.7169352 156.385566,72.6808436 C156.584375,72.5360748 156.780645,72.3909035 156.973839,72.2453297 C157.014751,72.2144707 157.054727,72.1834776 157.095371,72.1526186 C157.249793,72.0353546 157.402476,71.9178222 157.553155,71.7998872 C157.611848,71.7540013 157.670007,71.7081154 157.728166,71.6622294 C157.872694,71.5479171 158.01535,71.4334706 158.156402,71.3187557 C158.200255,71.2830667 158.244643,71.247646 158.288095,71.2119569 C158.468053,71.0642364 158.645338,70.9161133 158.819814,70.7674536 C158.85872,70.7343138 158.896557,70.7010398 158.935062,70.6678999 C159.072504,70.5498309 159.208342,70.4313593 159.342174,70.3127535 C159.368245,70.2896764 159.395386,70.2668676 159.42119,70.2437904 C159.452342,70.2160174 159.482156,70.1881101 159.513041,70.1604712 C159.604758,70.0780912 159.695539,69.995577 159.785518,69.9129287 C159.843945,69.8592609 159.902504,69.8055931 159.960262,69.7519254 C160.05345,69.6652519 160.145167,69.5783102 160.23635,69.4913684 C160.288225,69.4418599 160.340768,69.3924855 160.392108,69.342977 C160.498933,69.2398007 160.603887,69.1363561 160.708172,69.0329115 C160.741596,68.9997717 160.775823,68.966766 160.80898,68.933492 C160.945085,68.7970417 161.079051,68.6603231 161.210611,68.5233361 C161.244971,68.487647 161.278128,68.4516896 161.312221,68.4158664 C161.409019,68.3140318 161.505282,68.2121972 161.599539,68.1100943 C161.646601,68.0592441 161.692326,68.0081256 161.73872,67.9571412 C161.81827,67.8696627 161.89742,67.7821843 161.975098,67.6945717 C162.0243,67.6391597 162.072698,67.5836136 162.121097,67.5280674 C162.194631,67.4436749 162.267497,67.3592823 162.339427,67.2746214 C162.387291,67.2184044 162.434754,67.1621874 162.481682,67.1058363 C162.552943,67.0206387 162.623001,66.935307 162.692525,66.8498411 C162.72127,66.8145545 162.751218,66.7794021 162.779696,66.7439814 C162.796542,66.723051 162.812452,66.7021205 162.829164,66.6811901 C162.888259,66.6072628 162.946017,66.5333354 163.003775,66.4594081 C163.050435,66.3997027 163.09723,66.3399973 163.143088,66.2801577 C163.200846,66.2046204 163.257267,66.129083 163.313688,66.0534114 C163.357273,65.9949136 163.401394,65.9365499 163.444311,65.878052 C163.501534,65.7998313 163.557153,65.7214763 163.612905,65.6432556 C163.652881,65.5870386 163.693659,65.5309558 163.732966,65.4747388 C163.791259,65.3912854 163.847813,65.3076979 163.904501,65.2241103 C163.939263,65.1728576 163.97496,65.1216049 164.009187,65.070218 C164.0747,64.9717377 164.138206,64.8731232 164.201579,64.7745086 C164.22511,64.7378804 164.249577,64.7013863 164.272707,64.6647581 C164.358408,64.5295153 164.441969,64.3941384 164.523392,64.2584931 C164.542912,64.2260241 164.561228,64.1934209 164.580481,64.1609519 C164.641715,64.0576415 164.702681,63.954331 164.761509,63.8507523 C164.790254,63.8001704 164.817528,63.7494544 164.845739,63.6987383 C164.893335,63.6132724 164.941066,63.5278065 164.987058,63.4422064 C164.992139,63.4328145 164.99762,63.4232885 165.002701,63.4138967 C165.030109,63.3626439 165.055779,63.3111229 165.082652,63.2598702 C165.121024,63.1863453 165.15993,63.1128205 165.197098,63.0392957 C165.228384,62.9774436 165.258332,62.9154573 165.288682,62.853471 C165.324513,62.780617 165.360478,62.7077631 165.395106,62.6349091 C165.424787,62.572252 165.453131,62.5095948 165.48201,62.4469377 C165.515301,62.3746204 165.548725,62.3024373 165.580813,62.23012 C165.609023,62.1665237 165.636031,62.1029274 165.663305,62.0391969 C165.694056,61.9675504 165.72494,61.8960381 165.754487,61.8243917 C165.780826,61.760527 165.806095,61.6966624 165.831498,61.6327978 C165.860109,61.5610171 165.888721,61.4893707 165.916129,61.41759 C165.940596,61.353457 165.964127,61.2894582 165.987658,61.2253253 C166.013996,61.153813 166.040201,61.0824348 166.065336,61.0109225 C166.088065,60.9462529 166.109858,60.8815832 166.131651,60.8169136 C166.155717,60.7456696 166.179649,60.6742915 166.202511,60.6030475 C166.223368,60.5383779 166.243289,60.4735741 166.263076,60.4087702 C166.285003,60.3375263 166.306662,60.2661482 166.327519,60.19477 C166.33514,60.1687412 166.343563,60.1427123 166.35105,60.1165493 C166.362013,60.0780426 166.37164,60.039536 166.382202,60.0010294 C166.40239,59.9284437 166.422178,59.8557239 166.441029,59.7831383 C166.457875,59.7186028 166.474053,59.6542015 166.489963,59.589666 C166.507878,59.5169462 166.525393,59.4442263 166.542105,59.3715065 C166.556946,59.306971 166.571385,59.2424356 166.58529,59.1779001 C166.601066,59.1050461 166.616308,59.0321921 166.630881,58.9593381 C166.64385,58.8948026 166.656417,58.8302671 166.66845,58.7657316 C166.682087,58.6928777 166.694923,58.6200237 166.707356,58.5471697 C166.718453,58.4825 166.729149,58.4176962 166.73931,58.3530265 C166.750675,58.2801726 166.761237,58.2073186 166.771532,58.1344646 C166.780623,58.0697949 166.789581,58.0052594 166.797737,57.9405898 C166.806962,57.8673333 166.815385,57.7940768 166.823407,57.7208203 C166.830493,57.6566873 166.837579,57.5924202 166.843863,57.5282872 C166.850949,57.454494 166.857099,57.3807008 166.863115,57.3069077 C166.868329,57.243043 166.873544,57.1790442 166.877822,57.1151796 C166.882769,57.0411181 166.886512,56.9670565 166.89039,56.8931292 C166.892663,56.8473774 166.896272,56.8017598 166.898144,56.7560081 C166.898813,56.7404444 166.898545,56.7250149 166.899214,56.7094513 C166.905097,56.5534123 166.909108,56.3975074 166.909776,56.2414684 L167.000156,34.0950632 Z" id="路径" fill="url(#linearGradient-25)"></path>
                    <path d="M142.364338,9.93732438 C175.061507,23.1868219 175.23371,44.668686 142.749122,57.9183177 C110.264534,71.1679493 57.4240835,71.1682177 24.7269146,57.9187202 C-7.97119017,44.6688202 -8.14339383,23.186956 24.3411945,9.93732438 C56.8257827,-3.31230729 109.666233,-3.31257563 142.364338,9.93732438 Z" id="路径" fill="url(#linearGradient-26)"></path>
                    <path d="M131.587705,14.3327142 C158.294112,25.1546846 158.434896,42.7006891 131.90203,53.5227936 C105.369164,64.3448982 62.2099546,64.3450324 35.503414,53.523062 C8.79620477,42.7008233 8.65542026,25.1548188 35.1882866,14.3327142 C61.7212866,3.51060968 104.880362,3.51047551 131.587705,14.3327142 Z" id="路径" fill="url(#linearGradient-27)"></path>
                </g>
                <path d="M122.616663,149.590079 C144.361236,158.376785 144.475776,172.622948 122.872606,181.409787 C101.269435,190.196626 66.1291002,190.19676 44.3845266,181.410055 C22.6394183,172.623082 22.5247453,158.376918 44.1280492,149.590079 C65.7310858,140.803374 100.871421,140.80324 122.616663,149.590079 Z" id="路径" fill="url(#linearGradient-28)"></path>
                <g id="编组" transform="translate(10.000335, 0.000000)">
                    <path d="M130.319361,23.6646752 C131.922386,23.7171129 133.903918,24.1722404 135.543534,25.0816948 C133.448477,24.0848442 123.621905,18.2549162 121.522558,17.8861175 C117.41675,16.6816509 102.804558,19.7154337 85.505958,10.2742407 C102.278749,19.4328304 109.248692,23.9927779 130.319361,23.6646752 Z" id="路径" fill="url(#linearGradient-29)"></path>
                    <path d="M78.2843024,8.37567469 C80.9116018,8.00807687 83.537829,8.4644052 85.8104792,9.79309453 L95.1688765,15.2664993 C104.364022,20.6422339 114.879788,23.4407808 125.886111,23.4381122 L129.773984,23.4369113 C136.609224,23.4361107 141.860338,28.8329271 142,36.217974 L136.296259,124.340846 C136.285269,130.205732 133.363232,136.031657 128.630421,139.624909 L90.8009006,170.9297 C86.4035718,174.268902 82.1924137,176.220039 77.9838021,176.808863 C73.7751906,177.397687 69.5691257,176.624197 65.1819833,174.514012 L27.4484303,153.781361 C22.7278157,151.510794 19.8260183,146.499722 19.8368749,140.634702 L14.4546774,54.4286767 C14.6263726,46.6354695 19.895313,39.7682618 26.7317601,37.8522165 L30.6016722,36.7679697 C41.5588056,33.6977607 52.0405269,27.9895203 61.2242801,20.0921047 L70.7677758,11.8843325 C73.0428386,9.92772473 75.6641066,8.74233851 78.2843024,8.37567469 Z" id="路径" fill="url(#linearGradient-30)"></path>
                    <path d="M74.1527594,3.67776119 C70.0681277,1.45109242 64.8357781,2.05832933 60.8069038,4.88409582 C60.3032107,5.08810927 50.6161665,13.5635407 49.8843506,14.1557001 L49.8843506,14.1557001 C21.4963278,37.8414088 11.7382465,25.1221238 4.1250827,42.9454812 C2.59282644,47.7689517 3.27263782,49.3346115 3.22478832,50.2548736 C3.95807857,61.9979895 8.10865413,128.478623 8.47188143,134.295608 C8.48689304,134.536715 8.49332658,134.639589 8.49667739,134.691893 C8.49721352,134.516434 8.49587319,135.474323 8.54519705,136.028055 C8.61248122,136.942045 8.74021392,137.716336 8.93630305,138.577355 C10.4318345,144.626641 13.9981636,146.882931 17.8723648,148.816456 C21.1947553,150.61575 26.9251685,153.71905 26.9302618,153.721719 C23.1010955,151.647559 20.536389,147.658022 19.9778768,142.924483 C19.8233377,140.548907 18.210528,114.278139 16.5654167,88.1218524 C15.8545098,76.7340589 15.2053918,66.337245 14.8231319,60.2156405 C14.9460394,56.578757 12.0265498,48.4950741 21.8807322,40.4391445 C23.6778361,39.1117895 25.8194028,38.2571746 27.7902125,37.7772292 C66.4142755,27.7231953 68.4865475,2.34600298 85.5133298,9.82992103 L74.1527594,3.67776119 Z" id="路径" fill="url(#linearGradient-31)"></path>
                    <path d="M127.204318,21.3390019 C128.807343,21.3914396 130.567052,22.3698769 132.206668,23.2793313 C130.111611,22.2824807 120.506862,15.9292429 118.407516,15.5604442 C114.301707,14.3559775 99.2949241,17.3668105 81.9963245,7.92561754 C98.7691158,17.0840738 106.13365,21.6669712 127.204318,21.3390019 Z" id="路径" fill="url(#linearGradient-32)"></path>
                    <path d="M71.0377167,1.35208786 C66.953085,-0.874580909 61.7207354,-0.267344 57.6918611,2.55842249 C57.1881681,2.76256937 47.5011238,11.2378674 46.769308,11.8300268 L46.769308,11.8300268 C18.3812851,35.5157354 8.6232038,22.7964505 1.01004002,40.6198078 C-0.522216242,45.4432783 0.157595146,47.0089382 0.109745646,47.9292003 C0.843035887,59.6723162 4.99361145,126.152949 5.35683875,131.969935 C5.37185036,132.211041 5.3782839,132.313915 5.38163471,132.36622 C5.38217084,132.19076 5.38083051,133.148649 5.43015437,133.702381 C5.49743854,134.616372 5.62517124,135.390663 5.82126037,136.251682 C7.31679181,142.300968 10.883121,144.557258 14.7573221,146.490782 C18.0797126,148.290077 23.8101259,151.393377 23.8152191,151.396045 C19.9860528,149.32202 17.4213464,145.332349 16.8628341,140.59881 C16.708295,138.223234 15.0954854,111.952465 13.450374,85.7961791 C12.7394671,74.408519 12.0903491,64.0115716 11.7080892,57.8899671 C11.8309968,54.2530837 8.91150709,46.1694008 18.7656895,38.1134712 C20.5627934,36.7861161 22.7043601,35.9316347 24.6751698,35.4515559 C63.2992328,25.397522 64.9699444,0.441699494 81.9965926,7.92561754 L71.0377167,1.35208786 Z" id="路径" fill="url(#linearGradient-33)"></path>
                </g>
                <g id="编组" transform="translate(46.000335, 41.000000)">
                    <polygon id="路径" fill="url(#linearGradient-34)" points="59.6918313 43.0873607 48.3122536 36.9159427 82.6204223 32.109095 94 38.280513"></polygon>
                    <polygon id="路径" fill="url(#linearGradient-35)" points="45.6177971 97 34.2382194 90.8287158 34.3069604 53.9126393 45.686538 60.0840573"></polygon>
                    <polygon id="路径" fill="url(#linearGradient-35)" points="45.7145983 45.0456763 34.3350206 38.8743922 34.4037616 1.95831563 45.7833392 8.12959978"></polygon>
                    <polygon id="路径" fill="url(#linearGradient-36)" points="45.7833392 8.12959978 34.4037616 1.95831563 48.3809945 0 59.7605722 6.17128416"></polygon>
                    <polygon id="路径" fill="url(#linearGradient-37)" points="11.4076379 49.8523902 0.0280602626 43.681106 34.3350206 38.8743922 45.7145983 45.0456763"></polygon>
                    <polygon id="路径" fill="url(#linearGradient-38)" points="11.3795777 64.8907712 0 58.7193532 0.0280602626 43.681106 11.4076379 49.8523902"></polygon>
                    <polygon id="路径" fill="url(#linearGradient-39)" points="59.7605722 6.17128416 59.6918313 43.0873607 94 38.280513 93.9719397 53.3187601 59.663771 58.1256078 59.5950301 95.0416844 45.6177971 97 45.686538 60.0840573 11.3795777 64.8907712 11.4076379 49.8523902 45.7145983 45.0456763 45.7833392 8.12959978"></polygon>
                </g>
                <g id="编组" transform="translate(40.000335, 35.000000)">
                    <polygon id="路径" fill="url(#linearGradient-40)" points="67.3073052 47.4505634 53.5826245 39.9830268 90.2754537 34.4789969 104 41.9465336"></polygon>
                    <polygon id="路径" fill="url(#linearGradient-41)" points="50.3328345 108 36.6082882 100.532598 36.6912163 60.549571 50.4158971 68.0169732"></polygon>
                    <polygon id="路径" fill="url(#linearGradient-42)" points="50.4496328 49.8201879 36.7250865 42.3527857 36.8080147 2.36975888 50.532561 9.8371611"></polygon>
                    <polygon id="路径" fill="url(#linearGradient-43)" points="50.532561 9.8371611 36.8080147 2.36975888 53.6655527 0 67.3902334 7.46753665"></polygon>
                    <polygon id="路径" fill="url(#linearGradient-44)" points="13.7584165 55.1678739 0.0337357743 47.7003372 36.7250865 42.3527857 50.4496328 49.8201879"></polygon>
                    <polygon id="路径" fill="url(#linearGradient-45)" points="13.7245463 73.3646592 0 65.8971225 0.0337357743 47.7003372 13.7584165 55.1678739"></polygon>
                    <polygon id="路径" fill="url(#linearGradient-46)" points="67.3902334 7.46753665 67.3073052 47.4505634 104 41.9465336 103.966264 60.1433189 67.273435 65.6473488 67.1905068 105.630376 50.3328345 108 50.4158971 68.0169732 13.7245463 73.3646592 13.7584165 55.1678739 50.4496328 49.8201879 50.532561 9.8371611"></polygon>
                </g>
            </g>
        </g>
    </g>
</svg>